<svg width="35" height="35" viewBox="0 0 35 35" fill="none" xmlns="http://www.w3.org/2000/svg">
<g opacity="0.5">
<path d="M20.4173 8.02214H14.584M29.1673 10.2096V24.793C29.1673 30.6263 27.709 32.0846 21.8757 32.0846H13.1257C7.29232 32.0846 5.83398 30.6263 5.83398 24.793V10.2096C5.83398 4.3763 7.29232 2.91797 13.1257 2.91797H21.8757C27.709 2.91797 29.1673 4.3763 29.1673 10.2096Z" stroke="#6B15C7" stroke-width="1.5" stroke-linecap="round" stroke-linejoin="round"/>
<path d="M17.6608 27.8529C18.2603 27.8529 18.8353 27.6147 19.2592 27.1908C19.6831 26.7669 19.9212 26.1919 19.9212 25.5924C19.9212 24.9929 19.6831 24.418 19.2592 23.9941C18.8353 23.5702 18.2603 23.332 17.6608 23.332C17.0613 23.332 16.4864 23.5702 16.0625 23.9941C15.6385 24.418 15.4004 24.9929 15.4004 25.5924C15.4004 26.1919 15.6385 26.7669 16.0625 27.1908C16.4864 27.6147 17.0613 27.8529 17.6608 27.8529Z" stroke="#6B15C7" stroke-width="1.5" stroke-linecap="round" stroke-linejoin="round"/>
</g>
</svg>
