<svg width="24" height="24" viewBox="0 0 24 24" fill="none" xmlns="http://www.w3.org/2000/svg">
<path d="M15.1277 21.1L6.70273 12.7C6.60273 12.6 6.53207 12.4916 6.49073 12.375C6.44873 12.2583 6.42773 12.1333 6.42773 12C6.42773 11.8666 6.44873 11.7416 6.49073 11.625C6.53207 11.5083 6.60273 11.4 6.70273 11.3L15.1277 2.87496C15.3611 2.64163 15.6527 2.52496 16.0027 2.52496C16.3527 2.52496 16.6527 2.64996 16.9027 2.89996C17.1527 3.14996 17.2777 3.44163 17.2777 3.77496C17.2777 4.1083 17.1527 4.39996 16.9027 4.64996L9.55273 12L16.9027 19.35C17.1361 19.5833 17.2527 19.8706 17.2527 20.212C17.2527 20.554 17.1277 20.85 16.8777 21.1C16.6277 21.35 16.3361 21.475 16.0027 21.475C15.6694 21.475 15.3777 21.35 15.1277 21.1Z" fill="#C4C4C4"/>
</svg>
