<svg width="24" height="24" viewBox="0 0 24 24" fill="none" xmlns="http://www.w3.org/2000/svg">
<path d="M8.87227 21.1L17.2973 12.7C17.3973 12.6 17.4679 12.4916 17.5093 12.375C17.5513 12.2583 17.5723 12.1333 17.5723 12C17.5723 11.8666 17.5513 11.7416 17.5093 11.625C17.4679 11.5083 17.3973 11.4 17.2973 11.3L8.87227 2.87496C8.63893 2.64163 8.34727 2.52496 7.99727 2.52496C7.64727 2.52496 7.34727 2.64996 7.09727 2.89996C6.84727 3.14996 6.72227 3.44163 6.72227 3.77496C6.72227 4.1083 6.84727 4.39996 7.09727 4.64996L14.4473 12L7.09727 19.35C6.86393 19.5833 6.74727 19.8706 6.74727 20.212C6.74727 20.554 6.87227 20.85 7.12227 21.1C7.37227 21.35 7.66393 21.475 7.99727 21.475C8.3306 21.475 8.62227 21.35 8.87227 21.1Z" fill="#C4C4C4"/>
</svg>
