<svg width="35" height="35" viewBox="0 0 35 35" fill="none" xmlns="http://www.w3.org/2000/svg">
<g opacity="0.4">
<path d="M5.83283 11.6685H4.37449M30.6245 11.6685H29.1662M17.4995 4.37682V7.29349M15.312 7.29349H19.687M8.74949 21.8768H13.1245M21.8745 21.8768H26.2495M22.6182 4.12891H12.3807C8.74949 4.12891 7.94741 5.93724 7.48074 8.15391L5.83283 16.0435H29.1662L27.5182 8.15391C27.0516 5.93724 26.2495 4.12891 22.6182 4.12891ZM32.0682 28.906C32.2287 30.6122 30.8578 32.0852 29.1078 32.0852H26.3662C24.7912 32.0852 24.5724 31.4143 24.2953 30.5831L24.0037 29.7081C23.5953 28.5122 23.3328 27.7102 21.2328 27.7102H13.7662C11.6662 27.7102 11.3599 28.6143 10.9953 29.7081L10.7037 30.5831C10.4266 31.4143 10.2078 32.0852 8.63283 32.0852H5.89116C4.14116 32.0852 2.77033 30.6122 2.93074 28.906L3.74741 20.0247C3.95158 17.8372 4.37449 16.0435 8.19533 16.0435H26.8037C30.6245 16.0435 31.0474 17.8372 31.2516 20.0247L32.0682 28.906Z" stroke="#3EC483" stroke-width="1.5" stroke-linecap="round" stroke-linejoin="round"/>
</g>
</svg>
