<svg width="35" height="35" viewBox="0 0 35 35" fill="none" xmlns="http://www.w3.org/2000/svg">
<g opacity="0.5">
<path d="M2.91602 29.1648H5.83268M5.83268 29.1648H14.5827M5.83268 29.1648V16.699C5.83268 15.9203 5.83268 15.5309 5.92747 15.1678C6.01142 14.8468 6.14951 14.5425 6.33581 14.268C6.54727 13.9573 6.84039 13.6992 7.42664 13.1873L14.4281 7.05943C15.516 6.10859 16.06 5.63318 16.671 5.45234C17.2106 5.29193 17.7866 5.29193 18.3262 5.45234C18.9387 5.63318 19.4841 6.10859 20.5721 7.06234L27.5721 13.1873C28.1583 13.7007 28.4514 13.9573 28.6629 14.2665C28.8481 14.5436 28.9866 14.8469 29.0712 15.1678C29.166 15.5309 29.166 15.9203 29.166 16.699V29.1648M14.5827 29.1648H20.416M14.5827 29.1648V23.3315C14.5827 22.558 14.89 21.8161 15.437 21.2691C15.9839 20.7221 16.7258 20.4148 17.4993 20.4148C18.2729 20.4148 19.0148 20.7221 19.5617 21.2691C20.1087 21.8161 20.416 22.558 20.416 23.3315V29.1648M29.166 29.1648H20.416M29.166 29.1648H32.0827" stroke="#F9888A" stroke-width="2" stroke-linecap="round" stroke-linejoin="round"/>
</g>
</svg>
