<svg width="35" height="35" viewBox="0 0 35 35" fill="none" xmlns="http://www.w3.org/2000/svg">
<g opacity="0.5">
<path d="M5.46875 6.5625C3.66953 6.5625 2.1875 8.04453 2.1875 9.84375V25.1562C2.1875 26.9555 3.66953 28.4375 5.46875 28.4375H29.5312C31.3305 28.4375 32.8125 26.9555 32.8125 25.1562V9.84375C32.8125 8.04453 31.3305 6.5625 29.5312 6.5625H5.46875ZM5.46875 8.75H29.5312C30.1492 8.75 30.625 9.22578 30.625 9.84375V25.1562C30.625 25.7742 30.1492 26.25 29.5312 26.25H5.46875C4.85078 26.25 4.375 25.7742 4.375 25.1562V9.84375C4.375 9.22578 4.85078 8.75 5.46875 8.75ZM21.2253 13.5352C19.1188 13.5352 18.013 14.5742 18.013 15.8933C18.013 18.2809 20.813 17.9495 20.813 19.1745C20.813 19.3856 20.638 19.8603 19.4786 19.8603C18.3192 19.8603 17.5645 19.4502 17.5645 19.4502L17.2255 21.0252C17.2255 21.0252 17.9419 21.4681 19.3802 21.4681C20.813 21.4681 22.8298 20.3656 22.8298 18.7666C22.8298 16.8459 20.0266 16.7191 20.0266 15.8627C20.0266 15.4252 20.3984 15.0752 21.3937 15.0752C22.0434 15.0752 22.7609 15.5892 22.7609 15.5892L23.1044 13.9158C23.1044 13.9158 22.1528 13.5384 21.2231 13.5384L21.2253 13.5352ZM12.2369 13.6719L10.3906 19.0728C10.3906 19.0728 10.2988 18.6047 10.2539 18.3203C9.20938 15.9797 7.51953 15.1069 7.51953 15.1069L9.12734 21.2253H11.3148L14.3883 13.6719H12.2391H12.2369ZM15.1758 13.6719L13.9792 21.2253H15.9983L17.1938 13.6719H15.1758ZM26.0455 13.6719L22.7642 21.2253H24.7461L25.1562 20.1666H27.6861L27.8906 21.2253H29.7019L28.1641 13.6719H26.0455ZM5.29703 13.7047C5.29703 13.7047 9.23125 14.9133 10.1511 17.8762L9.46969 14.4583C9.46969 14.4583 9.16891 13.7036 8.37594 13.7036H5.29812L5.29703 13.7047ZM26.7969 15.8594L27.3766 18.6966H25.7359L26.7969 15.8594Z" fill="#FFA941"/>
</g>
</svg>
