<svg width="35" height="35" viewBox="0 0 35 35" fill="none" xmlns="http://www.w3.org/2000/svg">
<g opacity="0.5">
<path d="M7.29102 24.7917C7.29102 25.5652 7.59831 26.3071 8.14529 26.8541C8.69227 27.401 9.43413 27.7083 10.2077 27.7083C10.9812 27.7083 11.7231 27.401 12.2701 26.8541C12.8171 26.3071 13.1243 25.5652 13.1243 24.7917C13.1243 24.0181 12.8171 23.2763 12.2701 22.7293C11.7231 22.1823 10.9812 21.875 10.2077 21.875C9.43413 21.875 8.69227 22.1823 8.14529 22.7293C7.59831 23.2763 7.29102 24.0181 7.29102 24.7917ZM21.8743 24.7917C21.8743 25.5652 22.1816 26.3071 22.7286 26.8541C23.2756 27.401 24.0175 27.7083 24.791 27.7083C25.5646 27.7083 26.3064 27.401 26.8534 26.8541C27.4004 26.3071 27.7077 25.5652 27.7077 24.7917C27.7077 24.0181 27.4004 23.2763 26.8534 22.7293C26.3064 22.1823 25.5646 21.875 24.791 21.875C24.0175 21.875 23.2756 22.1823 22.7286 22.7293C22.1816 23.2763 21.8743 24.0181 21.8743 24.7917Z" stroke="#EE6344" stroke-width="1.5" stroke-linecap="round" stroke-linejoin="round"/>
<path d="M7.29102 24.793V24.793C5.68019 24.793 4.37435 23.4871 4.37435 21.8763V18.9596M2.91602 7.29297H15.9577C17.6145 7.29297 18.9577 8.63611 18.9577 10.293V24.793M13.1243 24.793H21.8743M27.7077 24.793H28.6243C29.7289 24.793 30.6243 23.8975 30.6243 22.793V16.043M30.6243 16.043H18.9577M30.6243 16.043L27.7059 11.1788C26.8022 9.6728 25.1747 8.7513 23.4184 8.7513H18.9577M4.37435 13.1263H10.2077" stroke="#EE6344" stroke-width="1.5" stroke-linecap="round" stroke-linejoin="round"/>
</g>
</svg>
